<svg id="visual" viewBox="0 0 900 600" width="900" height="600" xmlns="http://www.w3.org/2000/svg" xmlns:xlink="http://www.w3.org/1999/xlink" version="1.1"><rect x="0" y="0" width="900" height="600" fill="#ffffff"></rect><defs><linearGradient id="grad1_0" x1="33.3%" y1="0%" x2="100%" y2="100%"><stop offset="20%" stop-color="#ff9500" stop-opacity="1"></stop><stop offset="80%" stop-color="#ff9500" stop-opacity="1"></stop></linearGradient></defs><defs><linearGradient id="grad1_1" x1="33.3%" y1="0%" x2="100%" y2="100%"><stop offset="20%" stop-color="#ff9500" stop-opacity="1"></stop><stop offset="80%" stop-color="#ffc98e" stop-opacity="1"></stop></linearGradient></defs><defs><linearGradient id="grad1_2" x1="33.3%" y1="0%" x2="100%" y2="100%"><stop offset="20%" stop-color="#ffffff" stop-opacity="1"></stop><stop offset="80%" stop-color="#ffc98e" stop-opacity="1"></stop></linearGradient></defs><defs><linearGradient id="grad2_0" x1="0%" y1="0%" x2="66.7%" y2="100%"><stop offset="20%" stop-color="#ff9500" stop-opacity="1"></stop><stop offset="80%" stop-color="#ff9500" stop-opacity="1"></stop></linearGradient></defs><defs><linearGradient id="grad2_1" x1="0%" y1="0%" x2="66.7%" y2="100%"><stop offset="20%" stop-color="#ffc98e" stop-opacity="1"></stop><stop offset="80%" stop-color="#ff9500" stop-opacity="1"></stop></linearGradient></defs><defs><linearGradient id="grad2_2" x1="0%" y1="0%" x2="66.7%" y2="100%"><stop offset="20%" stop-color="#ffc98e" stop-opacity="1"></stop><stop offset="80%" stop-color="#ffffff" stop-opacity="1"></stop></linearGradient></defs><g transform="translate(900, 0)"><path d="M0 257C-48 250.5 -95.9 244.1 -127.5 220.8C-159.1 197.6 -174.3 157.6 -204.4 118C-234.5 78.4 -279.5 39.2 -324.5 0L0 0Z" fill="#ffe4c6"></path><path d="M0 171.3C-32 167 -63.9 162.7 -85 147.2C-106.1 131.7 -116.2 105.1 -136.3 78.7C-156.3 52.3 -186.3 26.1 -216.3 0L0 0Z" fill="#ffaf56"></path><path d="M0 85.7C-16 83.5 -32 81.4 -42.5 73.6C-53 65.9 -58.1 52.5 -68.1 39.3C-78.2 26.1 -93.2 13.1 -108.2 0L0 0Z" fill="#ff9500"></path></g><g transform="translate(0, 600)"><path d="M0 -292C41.4 -265.4 82.9 -238.9 125 -216.5C167.1 -194.1 210 -175.9 243.4 -140.5C276.7 -105.1 300.6 -52.6 324.5 0L0 0Z" fill="#ffe4c6"></path><path d="M0 -194.7C27.6 -177 55.2 -159.3 83.3 -144.3C111.4 -129.4 140 -117.3 162.2 -93.7C184.5 -70.1 200.4 -35 216.3 0L0 0Z" fill="#ffaf56"></path><path d="M0 -97.3C13.8 -88.5 27.6 -79.6 41.7 -72.2C55.7 -64.7 70 -58.6 81.1 -46.8C92.2 -35 100.2 -17.5 108.2 0L0 0Z" fill="#ff9500"></path></g></svg>